<svg xmlns="http://www.w3.org/2000/svg" width="512" height="512" viewBox="0 0 512 512">
  <defs>
    <!-- Background gradient -->
    <radialGradient id="bg" cx="50%" cy="45%" r="55%">
      <stop offset="0%" style="stop-color:#141e16"/>
      <stop offset="100%" style="stop-color:#0a0f0c"/>
    </radialGradient>

    <!-- Green accent gradient -->
    <linearGradient id="leaf" x1="0%" y1="0%" x2="100%" y2="100%">
      <stop offset="0%" style="stop-color:#22c55e"/>
      <stop offset="100%" style="stop-color:#4ade80"/>
    </linearGradient>

    <!-- Subtle glow behind the leaf -->
    <radialGradient id="glow" cx="50%" cy="42%" r="30%">
      <stop offset="0%" style="stop-color:#22c55e;stop-opacity:0.18"/>
      <stop offset="100%" style="stop-color:#22c55e;stop-opacity:0"/>
    </radialGradient>

    <!-- Outer ring gradient -->
    <linearGradient id="ring" x1="0%" y1="0%" x2="100%" y2="100%">
      <stop offset="0%" style="stop-color:#22c55e;stop-opacity:0.7"/>
      <stop offset="50%" style="stop-color:#4ade80;stop-opacity:0.4"/>
      <stop offset="100%" style="stop-color:#22c55e;stop-opacity:0.7"/>
    </linearGradient>

    <!-- Clip to circle for social media -->
    <clipPath id="circleClip">
      <circle cx="256" cy="256" r="256"/>
    </clipPath>
  </defs>

  <!-- Circular base -->
  <circle cx="256" cy="256" r="256" fill="url(#bg)"/>

  <!-- Subtle outer ring -->
  <circle cx="256" cy="256" r="248" fill="none" stroke="url(#ring)" stroke-width="2.5"/>

  <!-- Inner glow -->
  <circle cx="256" cy="256" r="256" fill="url(#glow)" clip-path="url(#circleClip)"/>

  <!-- Iconic cannabis fan leaf — single compound path, unmistakable silhouette -->
  <g transform="translate(256, 195) scale(1.15)" fill="url(#leaf)">
    <!--
      Classic 7-finger cannabis sativa leaf.
      Each finger is long, narrow, with pointed serrated edges.
      Fingers fan out from a central petiole junction.
    -->
    <path d="
      M 0,-100
      C 4,-85  7,-65  7,-45
      C 11,-48 13,-55 16,-50
      C 12,-35  8,-18  6,-5
      C 10,-8  14,-14 17,-10
      C 12, 2   7, 12  4, 18
      L 0, 22
      L -4, 18
      C -7, 12 -12, 2 -17,-10
      C -14,-14 -10,-8 -6,-5
      C -8,-18 -12,-35 -16,-50
      C -13,-55 -11,-48 -7,-45
      C -7,-65 -4,-85  0,-100
      Z

      M -5, 0
      C -15,-10 -30,-30 -42,-55
      C -45,-62 -50,-72 -55,-80
      C -58,-72 -56,-60 -50,-48
      C -52,-52 -54,-56 -50,-48
      C -42,-30 -28,-12 -18, 0
      C -12, 6  -8, 6  -5, 0
      Z

      M 5, 0
      C 15,-10 30,-30 42,-55
      C 45,-62 50,-72 55,-80
      C 58,-72 56,-60 50,-48
      C 52,-52 54,-56 50,-48
      C 42,-30 28,-12 18, 0
      C 12, 6   8, 6   5, 0
      Z

      M -6, 6
      C -20,-2 -38,-16 -52,-30
      C -56,-34 -62,-40 -68,-42
      C -66,-34 -60,-26 -54,-18
      C -48,-10 -36, 0 -24, 6
      C -16, 10 -10, 10 -6, 6
      Z

      M 6, 6
      C 20,-2 38,-16 52,-30
      C 56,-34 62,-40 68,-42
      C 66,-34 60,-26 54,-18
      C 48,-10 36, 0 24, 6
      C 16, 10  10, 10  6, 6
      Z

      M -4, 14
      C -14, 10 -26, 4 -34, -2
      C -38,-4 -42,-6 -46,-4
      C -42, 2 -36, 8 -28, 12
      C -20, 16 -12, 16 -4, 14
      Z

      M 4, 14
      C 14, 10 26, 4 34, -2
      C 38,-4 42,-6 46,-4
      C 42, 2 36, 8 28, 12
      C 20, 16 12, 16  4, 14
      Z
    " fill-rule="nonzero"/>

    <!-- Stem -->
    <rect x="-3" y="18" width="6" height="50" rx="3" opacity="0.7"/>
  </g>

  <!-- Neural network dots — AI concept (subtle) -->
  <g fill="#22c55e" opacity="0.12">
    <circle cx="130" cy="160" r="3"/>
    <circle cx="382" cy="160" r="3"/>
    <circle cx="100" cy="260" r="2.5"/>
    <circle cx="412" cy="260" r="2.5"/>
    <circle cx="150" cy="340" r="2"/>
    <circle cx="362" cy="340" r="2"/>
  </g>
  <!-- Connecting lines (neural net) -->
  <g stroke="#22c55e" stroke-width="0.8" opacity="0.06">
    <line x1="130" y1="160" x2="256" y2="140"/>
    <line x1="382" y1="160" x2="256" y2="140"/>
    <line x1="100" y1="260" x2="256" y2="205"/>
    <line x1="412" y1="260" x2="256" y2="205"/>
    <line x1="150" y1="340" x2="256" y2="280"/>
    <line x1="362" y1="340" x2="256" y2="280"/>
    <line x1="130" y1="160" x2="100" y2="260"/>
    <line x1="382" y1="160" x2="412" y2="260"/>
    <line x1="100" y1="260" x2="150" y2="340"/>
    <line x1="412" y1="260" x2="362" y2="340"/>
  </g>

  <!-- Brand name -->
  <text x="256" y="355" font-family="Georgia, 'Times New Roman', serif" font-size="56" font-weight="700" fill="#e8f0ea" text-anchor="middle" letter-spacing="1">
    MyStrain
  </text>

  <!-- AI badge -->
  <g transform="translate(256, 396)">
    <rect x="-30" y="-18" width="60" height="30" rx="7" fill="url(#leaf)" opacity="0.9"/>
    <text x="0" y="5" font-family="'Helvetica Neue', Arial, sans-serif" font-size="22" font-weight="800" fill="#0a0f0c" text-anchor="middle" letter-spacing="2">AI</text>
  </g>

  <!-- Tagline -->
  <text x="256" y="440" font-family="'Helvetica Neue', Arial, sans-serif" font-size="16" fill="#6a7a6e" text-anchor="middle" letter-spacing="3">
    CANNABIS SCIENCE
  </text>

  <!-- Thin accent arc at bottom -->
  <path d="M 130 458 Q 256 475 382 458" fill="none" stroke="url(#leaf)" stroke-width="1.5" opacity="0.3"/>
</svg>
